<svg version="1.0" xmlns="http://www.w3.org/2000/svg" width="100" height="110.667" viewBox="0 0 75 83"><path d="M11.6 1.6c-.3.9-.6 13.5-.6 28V56H-.1l.3 13.2.3 13.3h74l.3-13.3.3-13.2H64V17.5l-8.8-8.8L46.5 0H29.3C14.6 0 12.1.2 11.6 1.6zM43 12.5V21h17l-.2 17.2-.3 17.3h-44l-.3-25.8L15 4h28v8.5zm10.4 5.3c-8.2.4-8.4.3-8.4-7.5V3.6l7 6.9 7.1 7-5.7.3zM71 69v10H4V59h67v10z"/><path d="M22.5 29c-.3.5 0 1.2.7 1.5 2.5 1 28.8 0 28.8-1 0-1.4-28.6-1.9-29.5-.5zm0 9c-.3.5 0 1.2.7 1.5 2.5 1 28.8 0 28.8-1 0-1.4-28.6-1.9-29.5-.5zm0 9c-.3.5 0 1.2.7 1.5 2.5 1 28.8 0 28.8-1 0-1.4-28.6-1.9-29.5-.5zm-.1 18.4c-.3.8-.4 2.5-.2 3.8.3 2.3.4 2.3 15.3 2.3h15v-3.3c0-3.5-1.8-4.5-2.3-1.2-.3 1.9-1 2-12.8 2-11.6 0-12.4-.1-12.4-1.9 0-2.5-1.8-3.7-2.6-1.7z"/></svg>