<svg version="1.0" xmlns="http://www.w3.org/2000/svg" width="98.667" height="104" viewBox="0 0 74 78"><path d="M24 1.4C7.1 5.9-3.3 24 1.5 40.5 6 56 18.2 64.7 34.4 63.8c5.3-.2 8.5-1 12.1-2.9l5-2.7 10.2 10.1c8.1 8 10.5 9.9 11.5 8.9s-.8-3.3-8.7-11.2l-9.8-9.9 3.5-5.3c5-7.3 6.1-11.7 5.6-20.7C62.9 15.7 55 5.7 41 1.6 34.7-.3 30.2-.3 24 1.4zm20.7 5.4c10.2 5.3 15.7 14.3 15.7 25.7 0 7.5-2.9 14.9-7.3 18.9L51 53.3v-4.2c0-5.1-1.9-9.8-5.2-12.9l-2.6-2.3-3.3 2c-4.6 2.9-11.7 2.8-15.4-.1-3.2-2.5-4.8-1.9-8.2 3.2-1.7 2.4-2.3 4.7-2.3 8.6 0 3-.4 5.4-.9 5.4-1.3 0-6.1-7.4-7.7-11.7-1.8-5.2-1.7-13 .3-18.9C7.8 16.2 15.8 7.9 22 5.7 28.2 3.4 39.1 4 44.7 6.8zM32.5 41c2.2-.1 5.1-.7 6.5-1.5 1.4-.8 3.2-1.4 4-1.5 2.7 0 5 5.3 5 11.9 0 5.7-.2 6.1-3 7.6l-3 1.6V53c0-4.7-.3-6-1.5-6S39 48.4 39 53.4c0 6.4 0 6.5-3 7.1-1.7.4-4.8.4-7 0l-4-.7v-6.5c0-4.7-.3-6.4-1.2-6.1-.8.3-1.4 2.7-1.6 6.2l-.3 5.7-3-1.8C16.3 55.8 16 55 16 50.8c0-5.1 1.3-9.4 3.6-11.9 1.4-1.5 1.8-1.5 5.2.2 2 1.1 5.4 1.9 7.7 1.9z"/><path d="M28.3 16.5c-3.8 1.6-5.3 4.2-5.3 8.8 0 6.8 5.9 10.9 12.6 8.7 6.4-2.1 8.3-9.9 3.7-14.9-3.4-3.6-6.8-4.4-11-2.6zm8.1 3.6c3.2 2.5 3.5 7 .6 9.9-2.7 2.7-6.6 2.5-9.6-.6-3-2.9-2.7-6.7.8-9.7 2.7-2.2 4.9-2.2 8.2.4z"/></svg>