<svg version="1.0" xmlns="http://www.w3.org/2000/svg" width="101.333" height="118.667" viewBox="0 0 76 89"><path d="M33.4 8.2c-4.5 4.6-8.4 9.1-8.7 10-.5 1.3-1.7 1.8-4.4 1.8-3.5 0-4.6.8-12.1 8.3L0 36.6l.2 25.9.3 26 25.2.3 25.2.2.3-9.7.3-9.8 12-.5 12-.5V.5l-17-.3-17-.2-8.1 8.2zM43 12v8h-6.8c-3.8 0-7.2-.3-7.6-.7C28.1 18.8 41.7 4 42.7 4c.2 0 .3 3.6.3 8zm29 23v31.1l-10.2-.3-10.3-.3-.3-8.8-.3-8.7h4.6c4.2 0 4.4.1 3.3 2-.7 1-.9 2.2-.5 2.6.8.8 6.7-4.4 6.7-6 0-1.5-4.2-5.6-5.7-5.6-1.7 0-1.7 1.6 0 2.7.6.4-4.3 1-11.2 1.3-8.7.3-12.6.9-12.9 1.7-.3 1 1.4 1.3 6.2 1.3H48v37H4V41h16.7l.7-8.8.7-8.7 12.7.2 12.7.1.3 4.6.3 4.6h-4.2c-4.1 0-4.2-.1-2.5-1.9 2.7-3 .1-3.4-3.3-.5-1.7 1.4-3.1 3-3.1 3.5 0 1.4 6.4 6.8 7.3 6.2.5-.3.1-1.4-.9-2.4C39.7 36 40 36 52.3 36c10.6 0 12.7-.2 12.7-1.5 0-1.2-1.4-1.5-7-1.5h-7v-6.5c0-6.3-.1-6.5-2.5-6.5-2.5 0-2.5-.1-2.5-8V4h26v31zm-53-4v7H3.6l6.9-7c3.8-3.9 7.3-7 7.7-7 .5 0 .8 3.1.8 7z"/></svg>