<svg version="1.0" xmlns="http://www.w3.org/2000/svg" width="93.333" height="93.333" viewBox="0 0 70 70"><path d="M14.3 1.9c-1.8 1.1-3.5 3.2-3.9 4.5-.5 2.2-1.2 2.5-5.2 2.8-2.6.2-4.7.7-4.7 1.3 0 .5 2.1 1.1 4.7 1.3 4 .3 4.7.6 5.2 2.8.7 2.8 6 6.4 9.3 6.4 8.9 0 13.5-10.4 7.6-17-3.7-4-8.6-4.8-13-2.1zm9.9 3.8c1 .9 1.8 3 1.8 4.6 0 6.5-7 9.1-10.9 4.1-2.6-3.3-2.6-4.5 0-7.8 2.4-3 6.3-3.4 9.1-.9zm8.3 4.3c-.3.6 0 1.2.7 1.5 2.5 1 35.8 0 36.1-1 .3-1.4-35.9-1.9-36.8-.5zm10.4 17.9c-6.3 6.3-2 17.1 6.8 17.1 4.5 0 7.7-2 9.8-6.1 1.4-2.5 2.1-2.9 6-2.9 2.5 0 4.5-.5 4.5-1 0-.6-2-1-4.5-1-3.9 0-4.6-.4-6-2.9-3.5-6.8-11.5-8.3-16.6-3.2zm12.4 3.3c2 2.3 2.1 4.1.6 6.9-2.5 4.7-10.3 4.1-11.5-.8-1.9-7.5 5.8-11.9 10.9-6.1zM0 35c0 .6 7 1 19 1s19-.4 19-1-7-1-19-1-19 .4-19 1zm14.3 16c-1.8 1.1-3.5 3.1-3.9 4.4-.5 2.2-1.2 2.5-5.2 2.8-6 .4-6.1 2.2-.2 2.6 4 .3 4.7.7 5.7 3.2 1.4 3.7 6.5 6.4 10.9 5.6 9.1-1.8 11.3-15 3.3-19.2-3.8-1.9-6.8-1.8-10.6.6zm9.9 3.7c1 .9 1.8 3 1.8 4.6 0 6.5-7 9.1-10.9 4.1-1.2-1.5-2.1-3.2-2.1-3.9 0-.7.9-2.4 2.1-3.9 2.4-3 6.3-3.4 9.1-.9zm8.3 4.3c-.3.6 0 1.2.7 1.5 2.5 1 35.8 0 36.1-1 .3-1.4-35.9-1.9-36.8-.5z"/></svg>