<svg version="1.0" xmlns="http://www.w3.org/2000/svg" width="88" height="112" viewBox="0 0 66 84"><path d="M8.9 8.7L0 17.4V73h55l-.2-36.3L54.5.5 36.1.2 17.8 0 8.9 8.7zM20 12v8H3.5l8-8c4.4-4.4 8.1-8 8.2-8 .2 0 .3 3.6.3 8zm31 25v33H4V22h19V4h28v33z"/><path d="M12.7 33.7c-2 1.9.6 2.3 14.3 2.3 12.7 0 15-.2 15-1.5S39.7 33 27.7 33c-7.9 0-14.7.3-15 .7zM12 46c0 .6 5.7 1 15 1s15-.4 15-1-5.7-1-15-1-15 .4-15 1zm.7 9.7c-2 1.9.6 2.3 14.3 2.3 12.7 0 15-.2 15-1.5S39.7 55 27.7 55c-7.9 0-14.7.3-15 .7z"/><path d="M62 45.5V80l-25.2.2c-21.7.3-25.3.5-25.3 1.8s3.7 1.5 27 1.5h27l.3-36.3C66 11.5 66 11 64 11s-2 .6-2 34.5z"/></svg>