<svg version="1.0" xmlns="http://www.w3.org/2000/svg" width="1308" height="1309.333" viewBox="0 0 981 982"><path d="M448.5 1.6c-40.2 4.5-78.3 12.6-112 23.9-53.4 17.7-108 47.3-150 81-69.1 55.6-118.9 122.7-151.5 204C17.2 354.9 4.3 409 2 449 .7 470.4.8 510.9 2 532.7c2.3 38.9 16.6 98.3 34.3 141.8 46.1 113.6 131.4 204.6 242.2 258.1 95.6 46.2 204.6 59.9 308.7 38.9 118.2-23.8 222.3-89.7 295.3-187 54.8-73 86.7-154.2 96.1-245 2.5-23.4 2.5-75.5.1-97.5-12.5-113.3-58.6-211.8-136.9-292.6-32.1-33-68.2-61.3-105.2-82.5-14.9-8.5-52.5-26.6-67.1-32.4C626 17.3 578.6 5.9 538.5 3c-15.5-1.1-82.9-2.1-90-1.4zM509.2 230c36.9 3.1 79.5 21.1 111.6 47.2 40.6 33.1 70 80.7 80.1 129.4 5.6 27.5 5.3 64.7-1 95.9-4.2 20.8-14.7 47.1-26.8 66.9l-4.2 6.8 45 45.3c24.8 25 45.1 45.9 45.1 46.5 0 .7-9.5 10.9-21.2 22.6l-21.2 21.5-44.1-44.1c-24.2-24.2-44.3-44-44.7-44-.4 0-5.7 3.7-11.7 8.2-24.5 18.5-57.8 34.2-86.3 40.8-30.5 7-69.1 6.7-100.3-.7-40.5-9.6-76-29.1-105.9-58.2-22.4-21.9-38.2-44.8-50-72.3-37.2-87.3-17.9-183.9 50-249.8 27.5-26.7 54.2-42.8 90-54.3 12.1-3.9 22.6-6.4 32.4-7.6 9.2-1.2 49.3-1.2 63.2-.1z"/><path d="M451.4 291.4c-33.6 5.5-69.7 25.7-93 52.1-19.1 21.5-33.1 49.3-39.1 77.5-1.5 6.9-1.8 13-1.8 32 .1 20.5.3 24.8 2.3 33.6 9.3 42.7 33.2 77.7 70.1 102.5 17 11.5 33.3 18.6 53.4 23.4 82.2 19.5 166.1-28 192.6-109.2 6.1-18.6 7.6-28.7 7.6-50.8 0-15.8-.4-20.9-2.3-30.3-8.7-43.4-32.7-79.8-69-105-14.8-10.3-38.7-20.4-58.2-24.7-10.2-2.3-51.1-3-62.6-1.1z"/></svg>