<svg version="1.0" xmlns="http://www.w3.org/2000/svg" width="118.667" height="126.667" viewBox="0 0 89 95"><path d="M45 7v7h-8c-9.6 0-9.2-.9-8.8 17.4.2 9.3.7 13.1 1.6 13.4.9.3 1.2-2.9 1.2-13.7V17h14v14.9c0 8.9.4 15.2 1 15.6 1 .6 1.6-22.3 1-37.8L46.8 3H62l.2 22.2c.2 14 .7 22.3 1.3 22.3.6 0 1.1-7.1 1.3-18.8L65 10h13v14.5c0 12.3.2 14.5 1.5 14.5s1.5-2.2 1.3-15.8l-.3-15.7-7.7-.3-7.7-.3-.3-3.2-.3-3.2-9.7-.3L45-.1V7z"/><path d="M73.7 49.6c-5 5.4-8.7 7.6-10.8 6.3-.8-.5-5-.9-9.4-.9-5.4 0-8.6-.5-9.9-1.5-1.3-1-4.4-1.5-9.4-1.5h-7.4L21 57c-3.2 2.7-6.6 5-7.7 5-1.1 0-4.4 2.7-7.8 6.6l-5.8 6.6L9.9 85.3l10.2 10.2 7-7.3L34 81h31.8l4.9-5.7C80.4 64 88 53.8 88.6 51.4c.9-3.7-2-6.4-6.8-6.4-3.4 0-4.5.6-8.1 4.6zm11.1.4c.1.9-4.2 7.2-9.7 14-11.7 14.6-10 13.9-31.6 13.2l-14.3-.5-5.8-5.8-5.7-5.8 5.4-5c5.1-4.8 5.7-5 10.9-5 3.3 0 6.3.6 7.4 1.4 1.3 1 4.4 1.5 9 1.5 10 0 11.8.7 11.4 3.9-.3 2.6-.4 2.6-9.8 3.1-7.6.4-9.5.8-9.5 2s1.8 1.5 10.3 1.5c9.1 0 10.5-.2 11.8-1.9.8-1.1 1.4-3 1.4-4.3 0-1.6 1.1-2.8 3.8-4.2 2-1.1 5.2-3.8 7.1-6.1 3.4-4.2 7.3-5.2 7.9-2zM21.3 74.3l6.4 7.2-3.8 4.5-3.9 4.5-7.7-7.7L4.6 75l3.9-4c2.1-2.2 4.4-4 5.1-4 .6 0 4.1 3.3 7.7 7.3z"/><path d="M11.5 74c-.7 1.2.2 3 1.6 3 1.2 0 1.2-2.7 0-3.5-.5-.3-1.2-.1-1.6.5z"/></svg>