<svg version="1.0" xmlns="http://www.w3.org/2000/svg" width="142.667" height="100" viewBox="0 0 107 75"><path d="M.5 1.2C.2 1.9.1 18.7.2 38.5l.3 36h86l.5-4.3c.4-3.4 1.1-4.7 3-5.7 2.4-1.3 2.8-1.1 8.7 4.8 4.9 4.8 6.5 5.9 7.5 4.9s0-2.5-4.6-7.1l-5.8-5.9 2.7-5.6c2.3-4.6 2.7-6.6 2.3-11.1-.6-6.6-4.1-12.2-9.8-15.4l-3.9-2.2-.3-13.2L86.5.5 43.7.2C10 0 .8.2.5 1.2zM83 11.5V19H4V4h79v7.5zm-.2 12.6c.2 1.3-.8 1.8-4.1 2.3C67.6 28.1 60.4 37 61.2 48c.7 9.9 7.3 16.8 17.6 18.5 3.2.5 4.2 1.1 4.2 2.6 0 1.8-1.3 1.9-39.5 1.9H4V22l39.2.2c35.4.3 39.3.5 39.6 1.9zm7 8.6c6.7 5 9.3 14.4 5.7 21.2-4.9 9.6-18.6 11.9-25.7 4.3-3.7-4-5-6.9-5-11.7 0-6.6 4.1-12.9 10.2-15.4 3.7-1.6 11.7-.7 14.8 1.6z"/><path d="M12 11c0 .5.7 1 1.5 1s1.5-.5 1.5-1c0-.6-.7-1-1.5-1s-1.5.4-1.5 1zm9 0c0 .5.9 1 2 1s2-.5 2-1c0-.6-.9-1-2-1s-2 .4-2 1zm10 0c0 .5.7 1 1.5 1s1.5-.5 1.5-1c0-.6-.7-1-1.5-1s-1.5.4-1.5 1zM12 32c0 .6 5.8 1 15.4 1 9.3 0 15.7-.4 16.1-1 .4-.7-5-1-15.4-1C18 31 12 31.4 12 32zm0 10c0 1.4 35.7 1.4 36.5 0 .4-.7-5.8-1-17.9-1-11.7 0-18.6.4-18.6 1zm0 10c0 .6 4.3 1 10.9 1 6.3 0 11.2-.4 11.6-1 .4-.6-3.5-1-10.9-1-7.1 0-11.6.4-11.6 1zm0 10c0 1.3 30.7 1.3 31.5 0 .4-.7-5-1-15.4-1C18 61 12 61.4 12 62zm68-24.6c0 .7 1.4 1.6 3.1 2 2.4.4 3.4 1.5 4.7 4.6.9 2.2 2 4 2.5 4 1.2 0 .8-3.9-.7-6.9-2.1-4-9.6-7-9.6-3.7z"/></svg>